M48
;GenerationSoftware,Autodesk,EAGLE,9.6.0*%
;CreationDate,2020-11-08T14:12:54Z*%
FMAT,2
ICI,OFF
METRIC,TZ,000.000
T4C0.350
T3C0.650
T2C1.016
T1C1.500
%
G90
M71
T1
X31242Y-2540
X31242Y2540
T2
X27432Y-6350
X22352Y6350
X2032Y6350
X4572Y6350
X7112Y6350
X9652Y6350
X12192Y6350
X14732Y6350
X17272Y6350
X19812Y6350
X24892Y6350
X27432Y6350
X2032Y-6350
X4572Y-6350
X7112Y-6350
X9652Y-6350
X12192Y-6350
X14732Y-6350
X17272Y-6350
X19812Y-6350
X22352Y-6350
X24892Y-6350
T3
X6175Y2890
X6175Y-2890
T4
X37338Y3048
X36068Y3048
X39878Y3048
X38608Y2032
X37338Y2032
X36068Y2032
X39878Y2032
X38608Y4318
X37338Y4318
X36068Y4318
X39878Y4318
X38608Y5588
X37338Y5588
X36068Y5588
X39878Y5588
X23876Y-762
X10414Y-1270
X19304Y0
X10414Y1270
X8636Y1524
X9398Y1524
X8636Y2286
X9398Y2286
X8636Y-1524
X8636Y-2286
X9398Y-2286
X9398Y-1524
X23876Y508
X33528Y-762
X32258Y4318
X30988Y-762
X34798Y-762
X33528Y-4318
X32258Y-4318
X30988Y-4318
X34798Y-4318
X33528Y-5588
X32258Y-5588
X30988Y-5588
X34798Y-5588
X38608Y-762
X37338Y-762
X36068Y-762
X39878Y-762
X37338Y-4318
X36068Y-4318
X37338Y-5588
X36068Y-5588
X39878Y-2032
X38608Y-2032
X37338Y-2032
X37338Y-3048
X36068Y-2032
X36068Y-3048
X19304Y3048
X22856Y3048
X20320Y3048
X21848Y3048
X8636Y4064
X8636Y3302
X9398Y3302
X9398Y4064
X9398Y-4064
X9398Y-3302
X8636Y-4064
X8636Y-3302
X23876Y3810
X33528Y4318
X33528Y762
X32258Y762
X30988Y762
X32258Y-762
X30988Y4318
X34798Y4318
X34798Y762
X33528Y5588
X32258Y5588
X30988Y5588
X34798Y5588
X38608Y762
X37338Y762
X36068Y762
X39878Y762
X38608Y3048
X23876Y-3048
M30