G04 EAGLE Gerber RS-274X export*
G75*
%MOMM*%
%FSLAX34Y34*%
%LPD*%
%INGBL*%
%IPPOS*%
%AMOC8*
5,1,8,0,0,1.08239X$1,22.5*%
G01*
%ADD10C,2.250000*%
%ADD11C,1.000000*%
%ADD12C,1.879600*%
%ADD13C,1.000000*%
%ADD14C,0.756400*%
%ADD15C,0.152400*%
%ADD16C,0.254000*%

G36*
X133468Y-73517D02*
X133468Y-73517D01*
X133587Y-73510D01*
X133625Y-73497D01*
X133666Y-73492D01*
X133776Y-73449D01*
X133889Y-73412D01*
X133924Y-73390D01*
X133961Y-73375D01*
X134057Y-73306D01*
X134158Y-73242D01*
X134186Y-73212D01*
X134219Y-73189D01*
X134295Y-73097D01*
X134376Y-73010D01*
X134396Y-72975D01*
X134421Y-72944D01*
X134472Y-72836D01*
X134530Y-72732D01*
X134540Y-72692D01*
X134557Y-72656D01*
X134579Y-72539D01*
X134609Y-72424D01*
X134613Y-72364D01*
X134617Y-72344D01*
X134615Y-72323D01*
X134619Y-72263D01*
X134619Y-58420D01*
X134607Y-58322D01*
X134604Y-58223D01*
X134587Y-58165D01*
X134579Y-58104D01*
X134543Y-58012D01*
X134515Y-57917D01*
X134485Y-57865D01*
X134462Y-57809D01*
X134404Y-57729D01*
X134354Y-57643D01*
X134288Y-57568D01*
X134276Y-57551D01*
X134266Y-57544D01*
X134248Y-57523D01*
X124088Y-47363D01*
X124009Y-47302D01*
X123937Y-47234D01*
X123884Y-47205D01*
X123836Y-47168D01*
X123745Y-47128D01*
X123659Y-47080D01*
X123600Y-47065D01*
X123544Y-47041D01*
X123446Y-47026D01*
X123351Y-47001D01*
X123251Y-46995D01*
X123230Y-46991D01*
X123218Y-46993D01*
X123190Y-46991D01*
X79463Y-46991D01*
X79454Y-46983D01*
X79436Y-46974D01*
X79421Y-46961D01*
X79295Y-46902D01*
X79171Y-46839D01*
X79151Y-46834D01*
X79133Y-46825D01*
X78997Y-46799D01*
X78861Y-46769D01*
X78840Y-46769D01*
X78821Y-46766D01*
X78682Y-46774D01*
X78543Y-46779D01*
X78523Y-46784D01*
X78503Y-46785D01*
X78371Y-46828D01*
X78237Y-46867D01*
X78220Y-46877D01*
X78201Y-46883D01*
X78083Y-46958D01*
X77963Y-47028D01*
X77942Y-47047D01*
X77932Y-47054D01*
X77918Y-47068D01*
X77843Y-47135D01*
X76246Y-48731D01*
X73848Y-49725D01*
X60252Y-49725D01*
X57854Y-48731D01*
X56019Y-46896D01*
X55025Y-44498D01*
X55025Y-41902D01*
X56019Y-39504D01*
X57854Y-37669D01*
X59990Y-36784D01*
X60111Y-36715D01*
X60233Y-36650D01*
X60248Y-36636D01*
X60266Y-36626D01*
X60366Y-36529D01*
X60469Y-36436D01*
X60480Y-36419D01*
X60494Y-36405D01*
X60567Y-36286D01*
X60643Y-36170D01*
X60650Y-36151D01*
X60661Y-36134D01*
X60702Y-36001D01*
X60747Y-35870D01*
X60748Y-35849D01*
X60754Y-35830D01*
X60761Y-35691D01*
X60772Y-35553D01*
X60768Y-35533D01*
X60769Y-35512D01*
X60741Y-35376D01*
X60718Y-35239D01*
X60709Y-35221D01*
X60705Y-35201D01*
X60644Y-35076D01*
X60587Y-34949D01*
X60574Y-34933D01*
X60565Y-34915D01*
X60475Y-34809D01*
X60388Y-34701D01*
X60372Y-34689D01*
X60359Y-34673D01*
X60245Y-34593D01*
X60134Y-34510D01*
X60109Y-34497D01*
X60099Y-34490D01*
X60080Y-34483D01*
X59990Y-34439D01*
X58470Y-33809D01*
X56841Y-32180D01*
X55959Y-30052D01*
X55959Y-27748D01*
X56841Y-25620D01*
X58470Y-23991D01*
X60598Y-23109D01*
X62902Y-23109D01*
X65030Y-23991D01*
X66659Y-25620D01*
X67541Y-27748D01*
X67541Y-30052D01*
X66659Y-32180D01*
X65030Y-33809D01*
X64006Y-34233D01*
X63945Y-34268D01*
X63880Y-34294D01*
X63808Y-34346D01*
X63730Y-34391D01*
X63680Y-34439D01*
X63623Y-34480D01*
X63566Y-34550D01*
X63501Y-34612D01*
X63465Y-34672D01*
X63420Y-34725D01*
X63382Y-34807D01*
X63335Y-34883D01*
X63314Y-34950D01*
X63285Y-35013D01*
X63268Y-35101D01*
X63241Y-35187D01*
X63238Y-35257D01*
X63225Y-35326D01*
X63231Y-35415D01*
X63226Y-35505D01*
X63240Y-35573D01*
X63245Y-35643D01*
X63272Y-35728D01*
X63291Y-35816D01*
X63321Y-35879D01*
X63343Y-35945D01*
X63391Y-36021D01*
X63430Y-36102D01*
X63476Y-36155D01*
X63513Y-36214D01*
X63578Y-36276D01*
X63637Y-36344D01*
X63694Y-36384D01*
X63745Y-36432D01*
X63823Y-36475D01*
X63897Y-36527D01*
X63962Y-36552D01*
X64023Y-36586D01*
X64110Y-36608D01*
X64194Y-36640D01*
X64264Y-36648D01*
X64331Y-36665D01*
X64492Y-36675D01*
X73848Y-36675D01*
X76246Y-37669D01*
X77843Y-39265D01*
X77952Y-39350D01*
X78059Y-39439D01*
X78078Y-39448D01*
X78094Y-39460D01*
X78222Y-39516D01*
X78347Y-39575D01*
X78367Y-39578D01*
X78386Y-39586D01*
X78524Y-39608D01*
X78660Y-39634D01*
X78680Y-39633D01*
X78700Y-39636D01*
X78839Y-39623D01*
X78977Y-39615D01*
X78996Y-39608D01*
X79016Y-39606D01*
X79148Y-39559D01*
X79279Y-39517D01*
X79297Y-39506D01*
X79316Y-39499D01*
X79431Y-39421D01*
X79548Y-39346D01*
X79562Y-39332D01*
X79579Y-39320D01*
X79671Y-39216D01*
X79766Y-39115D01*
X79776Y-39097D01*
X79789Y-39082D01*
X79853Y-38958D01*
X79920Y-38836D01*
X79925Y-38817D01*
X79934Y-38799D01*
X79964Y-38663D01*
X79999Y-38528D01*
X80001Y-38500D01*
X80004Y-38488D01*
X80003Y-38468D01*
X80009Y-38368D01*
X80009Y-27685D01*
X88388Y-27685D01*
X163303Y-27938D01*
X175887Y-40522D01*
X175965Y-40582D01*
X176037Y-40650D01*
X176090Y-40679D01*
X176138Y-40716D01*
X176229Y-40756D01*
X176315Y-40804D01*
X176374Y-40819D01*
X176430Y-40843D01*
X176528Y-40858D01*
X176623Y-40883D01*
X176723Y-40889D01*
X176744Y-40893D01*
X176756Y-40891D01*
X176784Y-40893D01*
X227584Y-40893D01*
X227682Y-40881D01*
X227781Y-40878D01*
X227839Y-40861D01*
X227900Y-40853D01*
X227992Y-40817D01*
X228087Y-40789D01*
X228139Y-40759D01*
X228195Y-40736D01*
X228275Y-40678D01*
X228361Y-40628D01*
X228436Y-40562D01*
X228453Y-40550D01*
X228460Y-40540D01*
X228482Y-40522D01*
X234029Y-34974D01*
X234047Y-34950D01*
X234070Y-34931D01*
X234145Y-34825D01*
X234224Y-34722D01*
X234236Y-34695D01*
X234253Y-34671D01*
X234299Y-34550D01*
X234351Y-34431D01*
X234355Y-34401D01*
X234366Y-34374D01*
X234380Y-34245D01*
X234400Y-34116D01*
X234398Y-34087D01*
X234401Y-34058D01*
X234383Y-33929D01*
X234371Y-33800D01*
X234361Y-33772D01*
X234356Y-33743D01*
X234304Y-33590D01*
X233453Y-31536D01*
X233453Y-29424D01*
X234261Y-27474D01*
X235754Y-25981D01*
X237704Y-25173D01*
X239816Y-25173D01*
X241766Y-25981D01*
X243259Y-27474D01*
X244067Y-29424D01*
X244067Y-31309D01*
X244079Y-31407D01*
X244082Y-31506D01*
X244099Y-31564D01*
X244107Y-31624D01*
X244143Y-31716D01*
X244171Y-31811D01*
X244201Y-31864D01*
X244224Y-31920D01*
X244282Y-32000D01*
X244332Y-32085D01*
X244398Y-32161D01*
X244410Y-32177D01*
X244420Y-32185D01*
X244438Y-32206D01*
X249706Y-37474D01*
X249784Y-37534D01*
X249856Y-37602D01*
X249909Y-37631D01*
X249957Y-37668D01*
X250048Y-37708D01*
X250135Y-37756D01*
X250193Y-37771D01*
X250249Y-37795D01*
X250347Y-37810D01*
X250443Y-37835D01*
X250543Y-37841D01*
X250563Y-37845D01*
X250575Y-37843D01*
X250603Y-37845D01*
X252618Y-37845D01*
X254626Y-39854D01*
X268155Y-53383D01*
X268179Y-53401D01*
X268198Y-53423D01*
X268304Y-53498D01*
X268406Y-53578D01*
X268434Y-53590D01*
X268458Y-53606D01*
X268579Y-53652D01*
X268698Y-53704D01*
X268727Y-53709D01*
X268755Y-53719D01*
X268884Y-53734D01*
X269012Y-53754D01*
X269042Y-53751D01*
X269071Y-53754D01*
X269200Y-53736D01*
X269329Y-53724D01*
X269357Y-53714D01*
X269386Y-53710D01*
X269538Y-53658D01*
X272147Y-52577D01*
X276493Y-52577D01*
X280507Y-54240D01*
X283580Y-57313D01*
X285243Y-61327D01*
X285243Y-65673D01*
X283580Y-69687D01*
X281902Y-71366D01*
X281816Y-71475D01*
X281728Y-71582D01*
X281719Y-71601D01*
X281707Y-71617D01*
X281651Y-71745D01*
X281592Y-71870D01*
X281588Y-71890D01*
X281580Y-71909D01*
X281558Y-72047D01*
X281532Y-72183D01*
X281534Y-72203D01*
X281530Y-72223D01*
X281543Y-72362D01*
X281552Y-72500D01*
X281558Y-72519D01*
X281560Y-72539D01*
X281607Y-72671D01*
X281650Y-72802D01*
X281661Y-72820D01*
X281668Y-72839D01*
X281746Y-72954D01*
X281820Y-73071D01*
X281835Y-73085D01*
X281846Y-73102D01*
X281951Y-73194D01*
X282052Y-73289D01*
X282070Y-73299D01*
X282085Y-73312D01*
X282209Y-73376D01*
X282330Y-73443D01*
X282350Y-73448D01*
X282368Y-73457D01*
X282504Y-73487D01*
X282638Y-73522D01*
X282666Y-73524D01*
X282678Y-73527D01*
X282699Y-73526D01*
X282799Y-73532D01*
X410083Y-73532D01*
X410201Y-73517D01*
X410320Y-73510D01*
X410358Y-73497D01*
X410399Y-73492D01*
X410509Y-73449D01*
X410622Y-73412D01*
X410657Y-73390D01*
X410694Y-73375D01*
X410790Y-73306D01*
X410891Y-73242D01*
X410919Y-73212D01*
X410952Y-73189D01*
X411028Y-73097D01*
X411109Y-73010D01*
X411129Y-72975D01*
X411154Y-72944D01*
X411205Y-72836D01*
X411263Y-72732D01*
X411273Y-72692D01*
X411290Y-72656D01*
X411312Y-72539D01*
X411342Y-72424D01*
X411346Y-72364D01*
X411350Y-72344D01*
X411348Y-72323D01*
X411352Y-72263D01*
X411352Y-1270D01*
X411337Y-1152D01*
X411330Y-1033D01*
X411317Y-995D01*
X411312Y-954D01*
X411269Y-844D01*
X411232Y-731D01*
X411210Y-696D01*
X411195Y-659D01*
X411126Y-563D01*
X411062Y-462D01*
X411032Y-434D01*
X411009Y-401D01*
X410917Y-326D01*
X410830Y-244D01*
X410795Y-224D01*
X410764Y-199D01*
X410656Y-148D01*
X410552Y-90D01*
X410512Y-80D01*
X410476Y-63D01*
X410359Y-41D01*
X410244Y-11D01*
X410184Y-7D01*
X410164Y-3D01*
X410143Y-5D01*
X410083Y-1D01*
X296436Y-1D01*
X269122Y27314D01*
X269043Y27374D01*
X268971Y27442D01*
X268918Y27471D01*
X268870Y27508D01*
X268779Y27548D01*
X268693Y27596D01*
X268634Y27611D01*
X268578Y27635D01*
X268480Y27650D01*
X268385Y27675D01*
X268285Y27681D01*
X268264Y27685D01*
X268252Y27683D01*
X268224Y27685D01*
X233796Y27685D01*
X233698Y27673D01*
X233599Y27670D01*
X233540Y27653D01*
X233480Y27645D01*
X233388Y27609D01*
X233293Y27581D01*
X233241Y27551D01*
X233185Y27528D01*
X233104Y27470D01*
X233019Y27420D01*
X232944Y27354D01*
X232927Y27342D01*
X232919Y27332D01*
X232898Y27314D01*
X231566Y25981D01*
X229616Y25173D01*
X227490Y25173D01*
X227387Y25196D01*
X227262Y25231D01*
X227233Y25231D01*
X227204Y25238D01*
X227074Y25234D01*
X226944Y25236D01*
X226915Y25229D01*
X226886Y25228D01*
X226761Y25192D01*
X226635Y25162D01*
X226609Y25148D01*
X226580Y25139D01*
X226468Y25074D01*
X226354Y25013D01*
X226332Y24993D01*
X226306Y24978D01*
X226185Y24872D01*
X224868Y23555D01*
X223157Y21843D01*
X198443Y21843D01*
X196732Y23555D01*
X195415Y24872D01*
X195391Y24890D01*
X195372Y24912D01*
X195266Y24987D01*
X195163Y25066D01*
X195136Y25078D01*
X195112Y25095D01*
X194990Y25141D01*
X194871Y25193D01*
X194842Y25197D01*
X194814Y25208D01*
X194686Y25222D01*
X194557Y25243D01*
X194528Y25240D01*
X194498Y25243D01*
X194370Y25225D01*
X194241Y25213D01*
X194213Y25203D01*
X194184Y25199D01*
X194109Y25173D01*
X191984Y25173D01*
X190034Y25981D01*
X188702Y27314D01*
X188623Y27374D01*
X188551Y27442D01*
X188498Y27471D01*
X188450Y27508D01*
X188360Y27548D01*
X188273Y27596D01*
X188214Y27611D01*
X188159Y27635D01*
X188061Y27650D01*
X187965Y27675D01*
X187865Y27681D01*
X187844Y27685D01*
X187832Y27683D01*
X187804Y27685D01*
X79499Y27685D01*
X79487Y27696D01*
X79452Y27716D01*
X79421Y27741D01*
X79313Y27792D01*
X79209Y27850D01*
X79169Y27860D01*
X79133Y27877D01*
X79016Y27899D01*
X78901Y27929D01*
X78841Y27933D01*
X78821Y27937D01*
X78800Y27935D01*
X78740Y27939D01*
X68468Y27939D01*
X68439Y27936D01*
X68409Y27938D01*
X68281Y27916D01*
X68152Y27899D01*
X68125Y27889D01*
X68096Y27884D01*
X67977Y27830D01*
X67857Y27782D01*
X67833Y27765D01*
X67806Y27753D01*
X67704Y27672D01*
X67599Y27596D01*
X67581Y27573D01*
X67557Y27554D01*
X67479Y27451D01*
X67397Y27351D01*
X67384Y27324D01*
X67366Y27300D01*
X67295Y27156D01*
X66659Y25620D01*
X65030Y23991D01*
X62902Y23109D01*
X60598Y23109D01*
X58470Y23991D01*
X56841Y25620D01*
X56205Y27156D01*
X56190Y27181D01*
X56181Y27209D01*
X56112Y27319D01*
X56047Y27432D01*
X56027Y27453D01*
X56011Y27478D01*
X55916Y27567D01*
X55826Y27660D01*
X55801Y27676D01*
X55779Y27696D01*
X55666Y27759D01*
X55555Y27827D01*
X55526Y27835D01*
X55501Y27850D01*
X55375Y27882D01*
X55251Y27920D01*
X55221Y27922D01*
X55193Y27929D01*
X55032Y27939D01*
X51834Y27939D01*
X51805Y27936D01*
X51775Y27938D01*
X51647Y27916D01*
X51519Y27899D01*
X51491Y27889D01*
X51462Y27884D01*
X51343Y27830D01*
X51223Y27782D01*
X51199Y27765D01*
X51172Y27753D01*
X51071Y27672D01*
X50965Y27596D01*
X50947Y27573D01*
X50924Y27554D01*
X50845Y27451D01*
X50763Y27351D01*
X50750Y27324D01*
X50732Y27300D01*
X50661Y27156D01*
X49981Y25514D01*
X48146Y23679D01*
X45748Y22685D01*
X43152Y22685D01*
X40754Y23679D01*
X38919Y25514D01*
X38239Y27156D01*
X38224Y27181D01*
X38215Y27209D01*
X38145Y27319D01*
X38081Y27432D01*
X38061Y27453D01*
X38045Y27478D01*
X37950Y27567D01*
X37860Y27660D01*
X37835Y27676D01*
X37813Y27696D01*
X37699Y27759D01*
X37589Y27827D01*
X37560Y27835D01*
X37535Y27850D01*
X37409Y27882D01*
X37285Y27920D01*
X37255Y27922D01*
X37227Y27929D01*
X37066Y27939D01*
X11557Y27939D01*
X11439Y27924D01*
X11320Y27917D01*
X11282Y27904D01*
X11241Y27899D01*
X11131Y27856D01*
X11018Y27819D01*
X10983Y27797D01*
X10946Y27782D01*
X10850Y27713D01*
X10749Y27649D01*
X10721Y27619D01*
X10688Y27596D01*
X10612Y27504D01*
X10531Y27417D01*
X10511Y27382D01*
X10486Y27351D01*
X10435Y27243D01*
X10377Y27139D01*
X10367Y27099D01*
X10350Y27063D01*
X10328Y26946D01*
X10298Y26831D01*
X10294Y26771D01*
X10290Y26751D01*
X10292Y26730D01*
X10288Y26670D01*
X10288Y-72263D01*
X10303Y-72381D01*
X10310Y-72500D01*
X10323Y-72538D01*
X10328Y-72579D01*
X10371Y-72689D01*
X10408Y-72802D01*
X10430Y-72837D01*
X10445Y-72874D01*
X10514Y-72970D01*
X10578Y-73071D01*
X10608Y-73099D01*
X10631Y-73132D01*
X10723Y-73208D01*
X10810Y-73289D01*
X10845Y-73309D01*
X10876Y-73334D01*
X10984Y-73385D01*
X11088Y-73443D01*
X11128Y-73453D01*
X11164Y-73470D01*
X11281Y-73492D01*
X11396Y-73522D01*
X11456Y-73526D01*
X11476Y-73530D01*
X11497Y-73528D01*
X11557Y-73532D01*
X133350Y-73532D01*
X133468Y-73517D01*
G37*
G36*
X410611Y1528D02*
X410611Y1528D01*
X410630Y1526D01*
X410732Y1548D01*
X410834Y1564D01*
X410851Y1574D01*
X410871Y1578D01*
X410960Y1631D01*
X411051Y1680D01*
X411065Y1694D01*
X411082Y1704D01*
X411149Y1783D01*
X411221Y1858D01*
X411229Y1876D01*
X411242Y1891D01*
X411281Y1987D01*
X411324Y2081D01*
X411326Y2101D01*
X411334Y2119D01*
X411352Y2286D01*
X411352Y72771D01*
X411349Y72791D01*
X411351Y72810D01*
X411329Y72912D01*
X411313Y73014D01*
X411303Y73031D01*
X411299Y73051D01*
X411246Y73140D01*
X411197Y73231D01*
X411183Y73245D01*
X411173Y73262D01*
X411094Y73329D01*
X411019Y73401D01*
X411001Y73409D01*
X410986Y73422D01*
X410890Y73461D01*
X410796Y73504D01*
X410776Y73506D01*
X410758Y73514D01*
X410591Y73532D01*
X281573Y73532D01*
X281502Y73521D01*
X281430Y73519D01*
X281381Y73501D01*
X281330Y73493D01*
X281267Y73459D01*
X281199Y73434D01*
X281159Y73402D01*
X281112Y73377D01*
X281063Y73325D01*
X281007Y73281D01*
X280979Y73237D01*
X280943Y73199D01*
X280913Y73134D01*
X280874Y73074D01*
X280861Y73023D01*
X280839Y72976D01*
X280832Y72905D01*
X280814Y72835D01*
X280818Y72783D01*
X280812Y72732D01*
X280828Y72661D01*
X280833Y72590D01*
X280854Y72542D01*
X280865Y72491D01*
X280901Y72430D01*
X280930Y72364D01*
X280974Y72308D01*
X280991Y72280D01*
X281009Y72265D01*
X281034Y72233D01*
X283580Y69687D01*
X285243Y65673D01*
X285243Y61327D01*
X283580Y57313D01*
X280507Y54240D01*
X276493Y52577D01*
X272147Y52577D01*
X268133Y54240D01*
X265060Y57313D01*
X263397Y61327D01*
X263397Y65673D01*
X265060Y69687D01*
X267606Y72233D01*
X267648Y72291D01*
X267697Y72343D01*
X267719Y72390D01*
X267749Y72432D01*
X267770Y72501D01*
X267801Y72566D01*
X267806Y72618D01*
X267822Y72668D01*
X267820Y72739D01*
X267828Y72810D01*
X267817Y72861D01*
X267815Y72913D01*
X267791Y72981D01*
X267775Y73051D01*
X267749Y73096D01*
X267731Y73144D01*
X267686Y73200D01*
X267649Y73262D01*
X267610Y73296D01*
X267577Y73336D01*
X267517Y73375D01*
X267462Y73422D01*
X267414Y73441D01*
X267370Y73469D01*
X267301Y73487D01*
X267234Y73514D01*
X267163Y73522D01*
X267132Y73530D01*
X267108Y73528D01*
X267067Y73532D01*
X256173Y73532D01*
X256102Y73521D01*
X256030Y73519D01*
X255981Y73501D01*
X255930Y73493D01*
X255867Y73459D01*
X255799Y73434D01*
X255759Y73402D01*
X255712Y73377D01*
X255663Y73325D01*
X255607Y73281D01*
X255579Y73237D01*
X255543Y73199D01*
X255513Y73134D01*
X255474Y73074D01*
X255461Y73023D01*
X255439Y72976D01*
X255432Y72905D01*
X255414Y72835D01*
X255418Y72783D01*
X255412Y72732D01*
X255428Y72661D01*
X255433Y72590D01*
X255454Y72542D01*
X255465Y72491D01*
X255501Y72430D01*
X255530Y72364D01*
X255574Y72308D01*
X255591Y72280D01*
X255609Y72265D01*
X255634Y72233D01*
X258180Y69687D01*
X259843Y65673D01*
X259843Y61327D01*
X258180Y57313D01*
X255107Y54240D01*
X251093Y52577D01*
X246747Y52577D01*
X242733Y54240D01*
X239660Y57313D01*
X237997Y61327D01*
X237997Y65673D01*
X239660Y69687D01*
X242206Y72233D01*
X242248Y72291D01*
X242297Y72343D01*
X242319Y72390D01*
X242349Y72432D01*
X242370Y72501D01*
X242401Y72566D01*
X242406Y72618D01*
X242422Y72668D01*
X242420Y72739D01*
X242428Y72810D01*
X242417Y72861D01*
X242415Y72913D01*
X242391Y72981D01*
X242375Y73051D01*
X242349Y73096D01*
X242331Y73144D01*
X242286Y73200D01*
X242249Y73262D01*
X242210Y73296D01*
X242177Y73336D01*
X242117Y73375D01*
X242062Y73422D01*
X242014Y73441D01*
X241970Y73469D01*
X241901Y73487D01*
X241834Y73514D01*
X241763Y73522D01*
X241732Y73530D01*
X241708Y73528D01*
X241667Y73532D01*
X230773Y73532D01*
X230702Y73521D01*
X230630Y73519D01*
X230581Y73501D01*
X230530Y73493D01*
X230467Y73459D01*
X230399Y73434D01*
X230359Y73402D01*
X230312Y73377D01*
X230263Y73325D01*
X230207Y73281D01*
X230179Y73237D01*
X230143Y73199D01*
X230113Y73134D01*
X230074Y73074D01*
X230061Y73023D01*
X230039Y72976D01*
X230032Y72905D01*
X230014Y72835D01*
X230018Y72783D01*
X230012Y72732D01*
X230028Y72661D01*
X230033Y72590D01*
X230054Y72542D01*
X230065Y72491D01*
X230101Y72430D01*
X230130Y72364D01*
X230174Y72308D01*
X230191Y72280D01*
X230209Y72265D01*
X230234Y72233D01*
X232780Y69687D01*
X234443Y65673D01*
X234443Y61327D01*
X232780Y57313D01*
X229707Y54240D01*
X225693Y52577D01*
X221347Y52577D01*
X217333Y54240D01*
X214260Y57313D01*
X212597Y61327D01*
X212597Y65673D01*
X214260Y69687D01*
X216806Y72233D01*
X216848Y72291D01*
X216897Y72343D01*
X216919Y72390D01*
X216949Y72432D01*
X216970Y72501D01*
X217001Y72566D01*
X217006Y72618D01*
X217022Y72668D01*
X217020Y72739D01*
X217028Y72810D01*
X217017Y72861D01*
X217015Y72913D01*
X216991Y72981D01*
X216975Y73051D01*
X216949Y73096D01*
X216931Y73144D01*
X216886Y73200D01*
X216849Y73262D01*
X216810Y73296D01*
X216777Y73336D01*
X216717Y73375D01*
X216662Y73422D01*
X216614Y73441D01*
X216570Y73469D01*
X216501Y73487D01*
X216434Y73514D01*
X216363Y73522D01*
X216332Y73530D01*
X216308Y73528D01*
X216267Y73532D01*
X205373Y73532D01*
X205302Y73521D01*
X205230Y73519D01*
X205181Y73501D01*
X205130Y73493D01*
X205067Y73459D01*
X204999Y73434D01*
X204959Y73402D01*
X204912Y73377D01*
X204863Y73325D01*
X204807Y73281D01*
X204779Y73237D01*
X204743Y73199D01*
X204713Y73134D01*
X204674Y73074D01*
X204661Y73023D01*
X204639Y72976D01*
X204632Y72905D01*
X204614Y72835D01*
X204618Y72783D01*
X204612Y72732D01*
X204628Y72661D01*
X204633Y72590D01*
X204654Y72542D01*
X204665Y72491D01*
X204701Y72430D01*
X204730Y72364D01*
X204774Y72308D01*
X204791Y72280D01*
X204809Y72265D01*
X204834Y72233D01*
X207380Y69687D01*
X209043Y65673D01*
X209043Y61327D01*
X207380Y57313D01*
X204307Y54240D01*
X200293Y52577D01*
X195947Y52577D01*
X191933Y54240D01*
X188860Y57313D01*
X187197Y61327D01*
X187197Y65673D01*
X188860Y69687D01*
X191406Y72233D01*
X191448Y72291D01*
X191497Y72343D01*
X191519Y72390D01*
X191549Y72432D01*
X191570Y72501D01*
X191601Y72566D01*
X191606Y72618D01*
X191622Y72668D01*
X191620Y72739D01*
X191628Y72810D01*
X191617Y72861D01*
X191615Y72913D01*
X191591Y72981D01*
X191575Y73051D01*
X191549Y73096D01*
X191531Y73144D01*
X191486Y73200D01*
X191449Y73262D01*
X191410Y73296D01*
X191377Y73336D01*
X191317Y73375D01*
X191262Y73422D01*
X191214Y73441D01*
X191170Y73469D01*
X191101Y73487D01*
X191034Y73514D01*
X190963Y73522D01*
X190932Y73530D01*
X190908Y73528D01*
X190867Y73532D01*
X179973Y73532D01*
X179902Y73521D01*
X179830Y73519D01*
X179781Y73501D01*
X179730Y73493D01*
X179667Y73459D01*
X179599Y73434D01*
X179559Y73402D01*
X179512Y73377D01*
X179463Y73325D01*
X179407Y73281D01*
X179379Y73237D01*
X179343Y73199D01*
X179313Y73134D01*
X179274Y73074D01*
X179261Y73023D01*
X179239Y72976D01*
X179232Y72905D01*
X179214Y72835D01*
X179218Y72783D01*
X179212Y72732D01*
X179228Y72661D01*
X179233Y72590D01*
X179254Y72542D01*
X179265Y72491D01*
X179301Y72430D01*
X179330Y72364D01*
X179374Y72308D01*
X179391Y72280D01*
X179409Y72265D01*
X179434Y72233D01*
X181980Y69687D01*
X183643Y65673D01*
X183643Y61327D01*
X181980Y57313D01*
X178907Y54240D01*
X174893Y52577D01*
X170547Y52577D01*
X166533Y54240D01*
X163460Y57313D01*
X161797Y61327D01*
X161797Y65673D01*
X163460Y69687D01*
X166006Y72233D01*
X166048Y72291D01*
X166097Y72343D01*
X166119Y72390D01*
X166149Y72432D01*
X166170Y72501D01*
X166201Y72566D01*
X166206Y72618D01*
X166222Y72668D01*
X166220Y72739D01*
X166228Y72810D01*
X166217Y72861D01*
X166215Y72913D01*
X166191Y72981D01*
X166175Y73051D01*
X166149Y73096D01*
X166131Y73144D01*
X166086Y73200D01*
X166049Y73262D01*
X166010Y73296D01*
X165977Y73336D01*
X165917Y73375D01*
X165862Y73422D01*
X165814Y73441D01*
X165770Y73469D01*
X165701Y73487D01*
X165634Y73514D01*
X165563Y73522D01*
X165532Y73530D01*
X165508Y73528D01*
X165467Y73532D01*
X154573Y73532D01*
X154502Y73521D01*
X154430Y73519D01*
X154381Y73501D01*
X154330Y73493D01*
X154267Y73459D01*
X154199Y73434D01*
X154159Y73402D01*
X154112Y73377D01*
X154063Y73325D01*
X154007Y73281D01*
X153979Y73237D01*
X153943Y73199D01*
X153913Y73134D01*
X153874Y73074D01*
X153861Y73023D01*
X153839Y72976D01*
X153832Y72905D01*
X153814Y72835D01*
X153818Y72783D01*
X153812Y72732D01*
X153828Y72661D01*
X153833Y72590D01*
X153854Y72542D01*
X153865Y72491D01*
X153901Y72430D01*
X153930Y72364D01*
X153974Y72308D01*
X153991Y72280D01*
X154009Y72265D01*
X154034Y72233D01*
X156580Y69687D01*
X158243Y65673D01*
X158243Y61327D01*
X156580Y57313D01*
X153507Y54240D01*
X149493Y52577D01*
X145147Y52577D01*
X141133Y54240D01*
X138060Y57313D01*
X136397Y61327D01*
X136397Y65673D01*
X138060Y69687D01*
X140606Y72233D01*
X140648Y72291D01*
X140697Y72343D01*
X140719Y72390D01*
X140749Y72432D01*
X140770Y72501D01*
X140801Y72566D01*
X140806Y72618D01*
X140822Y72668D01*
X140820Y72739D01*
X140828Y72810D01*
X140817Y72861D01*
X140815Y72913D01*
X140791Y72981D01*
X140775Y73051D01*
X140749Y73096D01*
X140731Y73144D01*
X140686Y73200D01*
X140649Y73262D01*
X140610Y73296D01*
X140577Y73336D01*
X140517Y73375D01*
X140462Y73422D01*
X140414Y73441D01*
X140370Y73469D01*
X140301Y73487D01*
X140234Y73514D01*
X140163Y73522D01*
X140132Y73530D01*
X140108Y73528D01*
X140067Y73532D01*
X129173Y73532D01*
X129102Y73521D01*
X129030Y73519D01*
X128981Y73501D01*
X128930Y73493D01*
X128867Y73459D01*
X128799Y73434D01*
X128759Y73402D01*
X128712Y73377D01*
X128663Y73325D01*
X128607Y73281D01*
X128579Y73237D01*
X128543Y73199D01*
X128513Y73134D01*
X128474Y73074D01*
X128461Y73023D01*
X128439Y72976D01*
X128432Y72905D01*
X128414Y72835D01*
X128418Y72783D01*
X128412Y72732D01*
X128428Y72661D01*
X128433Y72590D01*
X128454Y72542D01*
X128465Y72491D01*
X128501Y72430D01*
X128530Y72364D01*
X128574Y72308D01*
X128591Y72280D01*
X128609Y72265D01*
X128634Y72233D01*
X131180Y69687D01*
X132843Y65673D01*
X132843Y61327D01*
X131180Y57313D01*
X128107Y54240D01*
X124093Y52577D01*
X119747Y52577D01*
X115733Y54240D01*
X112660Y57313D01*
X110997Y61327D01*
X110997Y65673D01*
X112660Y69687D01*
X115206Y72233D01*
X115248Y72291D01*
X115297Y72343D01*
X115319Y72390D01*
X115349Y72432D01*
X115370Y72501D01*
X115401Y72566D01*
X115406Y72618D01*
X115422Y72668D01*
X115420Y72739D01*
X115428Y72810D01*
X115417Y72861D01*
X115415Y72913D01*
X115391Y72981D01*
X115375Y73051D01*
X115349Y73096D01*
X115331Y73144D01*
X115286Y73200D01*
X115249Y73262D01*
X115210Y73296D01*
X115177Y73336D01*
X115117Y73375D01*
X115062Y73422D01*
X115014Y73441D01*
X114970Y73469D01*
X114901Y73487D01*
X114834Y73514D01*
X114763Y73522D01*
X114732Y73530D01*
X114708Y73528D01*
X114667Y73532D01*
X103773Y73532D01*
X103702Y73521D01*
X103630Y73519D01*
X103581Y73501D01*
X103530Y73493D01*
X103467Y73459D01*
X103399Y73434D01*
X103359Y73402D01*
X103312Y73377D01*
X103263Y73325D01*
X103207Y73281D01*
X103179Y73237D01*
X103143Y73199D01*
X103113Y73134D01*
X103074Y73074D01*
X103061Y73023D01*
X103039Y72976D01*
X103032Y72905D01*
X103014Y72835D01*
X103018Y72783D01*
X103012Y72732D01*
X103028Y72661D01*
X103033Y72590D01*
X103054Y72542D01*
X103065Y72491D01*
X103101Y72430D01*
X103130Y72364D01*
X103174Y72308D01*
X103191Y72280D01*
X103209Y72265D01*
X103234Y72233D01*
X105780Y69687D01*
X107443Y65673D01*
X107443Y61327D01*
X105780Y57313D01*
X102707Y54240D01*
X98693Y52577D01*
X94347Y52577D01*
X90333Y54240D01*
X87260Y57313D01*
X85597Y61327D01*
X85597Y65673D01*
X87260Y69687D01*
X89806Y72233D01*
X89848Y72291D01*
X89897Y72343D01*
X89919Y72390D01*
X89949Y72432D01*
X89970Y72501D01*
X90001Y72566D01*
X90006Y72618D01*
X90022Y72668D01*
X90020Y72739D01*
X90028Y72810D01*
X90017Y72861D01*
X90015Y72913D01*
X89991Y72981D01*
X89975Y73051D01*
X89949Y73096D01*
X89931Y73144D01*
X89886Y73200D01*
X89849Y73262D01*
X89810Y73296D01*
X89777Y73336D01*
X89717Y73375D01*
X89662Y73422D01*
X89614Y73441D01*
X89570Y73469D01*
X89501Y73487D01*
X89434Y73514D01*
X89363Y73522D01*
X89332Y73530D01*
X89308Y73528D01*
X89267Y73532D01*
X11049Y73532D01*
X11029Y73529D01*
X11010Y73531D01*
X10908Y73509D01*
X10806Y73493D01*
X10789Y73483D01*
X10769Y73479D01*
X10680Y73426D01*
X10589Y73377D01*
X10575Y73363D01*
X10558Y73353D01*
X10491Y73274D01*
X10419Y73199D01*
X10411Y73181D01*
X10398Y73166D01*
X10359Y73070D01*
X10316Y72976D01*
X10314Y72956D01*
X10306Y72938D01*
X10288Y72771D01*
X10288Y30226D01*
X10291Y30206D01*
X10289Y30187D01*
X10311Y30085D01*
X10327Y29983D01*
X10337Y29966D01*
X10341Y29946D01*
X10394Y29857D01*
X10443Y29766D01*
X10457Y29752D01*
X10467Y29735D01*
X10546Y29668D01*
X10621Y29596D01*
X10639Y29588D01*
X10654Y29575D01*
X10750Y29536D01*
X10844Y29493D01*
X10864Y29491D01*
X10882Y29483D01*
X11049Y29465D01*
X37164Y29465D01*
X37184Y29468D01*
X37203Y29466D01*
X37305Y29488D01*
X37407Y29504D01*
X37424Y29514D01*
X37444Y29518D01*
X37533Y29571D01*
X37624Y29620D01*
X37638Y29634D01*
X37655Y29644D01*
X37722Y29723D01*
X37794Y29798D01*
X37802Y29816D01*
X37815Y29831D01*
X37854Y29927D01*
X37897Y30021D01*
X37899Y30041D01*
X37907Y30059D01*
X37925Y30226D01*
X37925Y30508D01*
X38919Y32906D01*
X40754Y34741D01*
X43152Y35735D01*
X45748Y35735D01*
X48146Y34741D01*
X49981Y32906D01*
X50975Y30508D01*
X50975Y30226D01*
X50978Y30206D01*
X50976Y30187D01*
X50998Y30085D01*
X51014Y29983D01*
X51024Y29966D01*
X51028Y29946D01*
X51081Y29857D01*
X51130Y29766D01*
X51144Y29752D01*
X51154Y29735D01*
X51233Y29668D01*
X51308Y29596D01*
X51326Y29588D01*
X51341Y29575D01*
X51437Y29536D01*
X51531Y29493D01*
X51551Y29491D01*
X51569Y29483D01*
X51736Y29465D01*
X55207Y29465D01*
X55322Y29484D01*
X55438Y29501D01*
X55444Y29503D01*
X55450Y29504D01*
X55553Y29559D01*
X55658Y29612D01*
X55662Y29617D01*
X55668Y29620D01*
X55747Y29704D01*
X55830Y29788D01*
X55833Y29794D01*
X55837Y29798D01*
X55845Y29815D01*
X55911Y29935D01*
X56841Y32180D01*
X58470Y33809D01*
X60598Y34691D01*
X62902Y34691D01*
X65030Y33809D01*
X66659Y32180D01*
X67589Y29935D01*
X67651Y29835D01*
X67711Y29735D01*
X67716Y29731D01*
X67719Y29726D01*
X67809Y29651D01*
X67898Y29575D01*
X67904Y29573D01*
X67908Y29569D01*
X68017Y29527D01*
X68126Y29483D01*
X68133Y29482D01*
X68138Y29481D01*
X68156Y29480D01*
X68293Y29465D01*
X79898Y29465D01*
X79929Y29434D01*
X80003Y29381D01*
X80072Y29321D01*
X80102Y29309D01*
X80128Y29290D01*
X80215Y29263D01*
X80300Y29229D01*
X80341Y29225D01*
X80363Y29218D01*
X80396Y29219D01*
X80467Y29211D01*
X186972Y29211D01*
X186992Y29214D01*
X187011Y29212D01*
X187113Y29234D01*
X187215Y29250D01*
X187232Y29260D01*
X187252Y29264D01*
X187341Y29317D01*
X187432Y29366D01*
X187446Y29380D01*
X187463Y29390D01*
X187530Y29469D01*
X187602Y29544D01*
X187610Y29562D01*
X187623Y29577D01*
X187662Y29673D01*
X187705Y29767D01*
X187707Y29787D01*
X187715Y29805D01*
X187733Y29972D01*
X187733Y32678D01*
X190842Y35787D01*
X195238Y35787D01*
X197582Y33443D01*
X197598Y33432D01*
X197610Y33416D01*
X197698Y33360D01*
X197781Y33300D01*
X197800Y33294D01*
X197817Y33283D01*
X197918Y33258D01*
X198017Y33227D01*
X198036Y33228D01*
X198056Y33223D01*
X198159Y33231D01*
X198262Y33234D01*
X198281Y33240D01*
X198301Y33242D01*
X198396Y33282D01*
X198493Y33318D01*
X198509Y33331D01*
X198527Y33338D01*
X198658Y33443D01*
X201002Y35787D01*
X205398Y35787D01*
X208195Y32990D01*
X208269Y32937D01*
X208339Y32877D01*
X208369Y32865D01*
X208395Y32846D01*
X208482Y32819D01*
X208567Y32785D01*
X208608Y32781D01*
X208630Y32774D01*
X208662Y32775D01*
X208733Y32767D01*
X212947Y32767D01*
X213037Y32781D01*
X213128Y32789D01*
X213157Y32801D01*
X213189Y32806D01*
X213270Y32849D01*
X213354Y32885D01*
X213386Y32911D01*
X213407Y32922D01*
X213429Y32945D01*
X213485Y32990D01*
X216282Y35787D01*
X220678Y35787D01*
X222982Y33483D01*
X222998Y33472D01*
X223010Y33456D01*
X223098Y33400D01*
X223181Y33340D01*
X223200Y33334D01*
X223217Y33323D01*
X223318Y33298D01*
X223417Y33267D01*
X223436Y33268D01*
X223456Y33263D01*
X223559Y33271D01*
X223662Y33274D01*
X223681Y33280D01*
X223701Y33282D01*
X223796Y33322D01*
X223893Y33358D01*
X223909Y33371D01*
X223927Y33378D01*
X224058Y33483D01*
X226362Y35787D01*
X230758Y35787D01*
X233867Y32678D01*
X233867Y29972D01*
X233868Y29963D01*
X233868Y29958D01*
X233870Y29950D01*
X233868Y29933D01*
X233890Y29831D01*
X233906Y29729D01*
X233916Y29712D01*
X233920Y29692D01*
X233973Y29603D01*
X234022Y29512D01*
X234036Y29498D01*
X234046Y29481D01*
X234125Y29414D01*
X234200Y29342D01*
X234218Y29334D01*
X234233Y29321D01*
X234329Y29282D01*
X234423Y29239D01*
X234443Y29237D01*
X234461Y29229D01*
X234628Y29211D01*
X269382Y29211D01*
X296845Y1748D01*
X296919Y1695D01*
X296988Y1635D01*
X297018Y1623D01*
X297044Y1604D01*
X297131Y1577D01*
X297216Y1543D01*
X297257Y1539D01*
X297279Y1532D01*
X297312Y1533D01*
X297383Y1525D01*
X410591Y1525D01*
X410611Y1528D01*
G37*
G36*
X267138Y-73521D02*
X267138Y-73521D01*
X267210Y-73519D01*
X267259Y-73501D01*
X267310Y-73493D01*
X267373Y-73459D01*
X267441Y-73434D01*
X267481Y-73402D01*
X267528Y-73377D01*
X267577Y-73325D01*
X267633Y-73281D01*
X267661Y-73237D01*
X267697Y-73199D01*
X267727Y-73134D01*
X267766Y-73074D01*
X267779Y-73023D01*
X267801Y-72976D01*
X267808Y-72905D01*
X267826Y-72835D01*
X267822Y-72783D01*
X267828Y-72732D01*
X267812Y-72661D01*
X267807Y-72590D01*
X267786Y-72542D01*
X267775Y-72491D01*
X267739Y-72430D01*
X267710Y-72364D01*
X267666Y-72308D01*
X267649Y-72280D01*
X267631Y-72265D01*
X267606Y-72233D01*
X265060Y-69687D01*
X263397Y-65673D01*
X263397Y-61327D01*
X264608Y-58405D01*
X264634Y-58291D01*
X264663Y-58178D01*
X264663Y-58171D01*
X264664Y-58165D01*
X264653Y-58049D01*
X264644Y-57932D01*
X264642Y-57927D01*
X264641Y-57920D01*
X264593Y-57813D01*
X264548Y-57706D01*
X264543Y-57700D01*
X264541Y-57696D01*
X264528Y-57682D01*
X264443Y-57575D01*
X250525Y-43658D01*
X250451Y-43605D01*
X250382Y-43545D01*
X250352Y-43533D01*
X250326Y-43514D01*
X250239Y-43487D01*
X250154Y-43453D01*
X250113Y-43449D01*
X250091Y-43442D01*
X250058Y-43443D01*
X249987Y-43435D01*
X247762Y-43435D01*
X240337Y-36010D01*
X240263Y-35957D01*
X240194Y-35897D01*
X240164Y-35885D01*
X240138Y-35866D01*
X240051Y-35839D01*
X239966Y-35805D01*
X239925Y-35801D01*
X239903Y-35794D01*
X239870Y-35795D01*
X239799Y-35787D01*
X236562Y-35787D01*
X236506Y-35731D01*
X236490Y-35719D01*
X236477Y-35704D01*
X236390Y-35648D01*
X236306Y-35587D01*
X236287Y-35582D01*
X236270Y-35571D01*
X236170Y-35545D01*
X236071Y-35515D01*
X236051Y-35516D01*
X236032Y-35511D01*
X235929Y-35519D01*
X235825Y-35521D01*
X235807Y-35528D01*
X235787Y-35530D01*
X235692Y-35570D01*
X235594Y-35606D01*
X235579Y-35618D01*
X235560Y-35626D01*
X235429Y-35731D01*
X228742Y-42419D01*
X175626Y-42419D01*
X173766Y-40559D01*
X162890Y-29683D01*
X162817Y-29630D01*
X162749Y-29572D01*
X162718Y-29559D01*
X162691Y-29539D01*
X162605Y-29513D01*
X162521Y-29479D01*
X162479Y-29474D01*
X162456Y-29467D01*
X162424Y-29468D01*
X162355Y-29460D01*
X88385Y-29211D01*
X88384Y-29211D01*
X88383Y-29211D01*
X82296Y-29211D01*
X82276Y-29214D01*
X82257Y-29212D01*
X82155Y-29234D01*
X82053Y-29250D01*
X82036Y-29260D01*
X82016Y-29264D01*
X81927Y-29317D01*
X81836Y-29366D01*
X81822Y-29380D01*
X81805Y-29390D01*
X81738Y-29469D01*
X81666Y-29544D01*
X81658Y-29562D01*
X81645Y-29577D01*
X81606Y-29673D01*
X81563Y-29767D01*
X81561Y-29787D01*
X81553Y-29805D01*
X81535Y-29972D01*
X81535Y-44704D01*
X81538Y-44724D01*
X81536Y-44743D01*
X81558Y-44845D01*
X81574Y-44947D01*
X81584Y-44964D01*
X81588Y-44984D01*
X81641Y-45073D01*
X81690Y-45164D01*
X81704Y-45178D01*
X81714Y-45195D01*
X81793Y-45262D01*
X81868Y-45334D01*
X81886Y-45342D01*
X81901Y-45355D01*
X81997Y-45394D01*
X82091Y-45437D01*
X82111Y-45439D01*
X82129Y-45447D01*
X82296Y-45465D01*
X124348Y-45465D01*
X136145Y-57262D01*
X136145Y-72771D01*
X136148Y-72791D01*
X136146Y-72810D01*
X136168Y-72912D01*
X136184Y-73014D01*
X136194Y-73031D01*
X136198Y-73051D01*
X136251Y-73140D01*
X136300Y-73231D01*
X136314Y-73245D01*
X136324Y-73262D01*
X136403Y-73329D01*
X136478Y-73401D01*
X136496Y-73409D01*
X136511Y-73422D01*
X136607Y-73461D01*
X136701Y-73504D01*
X136721Y-73506D01*
X136739Y-73514D01*
X136906Y-73532D01*
X267067Y-73532D01*
X267138Y-73521D01*
G37*
%LPC*%
G36*
X184473Y-30227D02*
X184473Y-30227D01*
X182762Y-28516D01*
X182762Y-28515D01*
X169605Y-15358D01*
X169526Y-15298D01*
X169454Y-15230D01*
X169401Y-15201D01*
X169353Y-15164D01*
X169262Y-15124D01*
X169176Y-15076D01*
X169117Y-15061D01*
X169061Y-15037D01*
X168963Y-15022D01*
X168868Y-14997D01*
X168768Y-14991D01*
X168747Y-14987D01*
X168735Y-14989D01*
X168707Y-14987D01*
X109785Y-14987D01*
X109755Y-14990D01*
X109726Y-14988D01*
X109598Y-15010D01*
X109469Y-15027D01*
X109442Y-15037D01*
X109413Y-15043D01*
X109294Y-15096D01*
X109174Y-15144D01*
X109150Y-15161D01*
X109123Y-15173D01*
X109021Y-15254D01*
X108916Y-15330D01*
X108897Y-15353D01*
X108874Y-15372D01*
X108796Y-15475D01*
X108713Y-15575D01*
X108701Y-15602D01*
X108683Y-15626D01*
X108648Y-15696D01*
X107146Y-17199D01*
X105196Y-18007D01*
X103084Y-18007D01*
X101134Y-17199D01*
X99641Y-15706D01*
X98833Y-13756D01*
X98833Y-11644D01*
X99641Y-9694D01*
X101134Y-8201D01*
X103084Y-7393D01*
X105196Y-7393D01*
X107146Y-8201D01*
X108649Y-9704D01*
X108706Y-9793D01*
X108770Y-9906D01*
X108790Y-9927D01*
X108806Y-9952D01*
X108901Y-10041D01*
X108991Y-10134D01*
X109016Y-10150D01*
X109038Y-10170D01*
X109151Y-10233D01*
X109262Y-10301D01*
X109290Y-10309D01*
X109316Y-10324D01*
X109442Y-10356D01*
X109566Y-10394D01*
X109596Y-10396D01*
X109624Y-10403D01*
X109785Y-10413D01*
X171127Y-10413D01*
X172838Y-12124D01*
X172838Y-12125D01*
X185995Y-25282D01*
X186074Y-25342D01*
X186146Y-25410D01*
X186199Y-25439D01*
X186247Y-25476D01*
X186338Y-25516D01*
X186424Y-25564D01*
X186483Y-25579D01*
X186539Y-25603D01*
X186637Y-25618D01*
X186732Y-25643D01*
X186832Y-25649D01*
X186853Y-25653D01*
X186865Y-25651D01*
X186893Y-25653D01*
X216967Y-25653D01*
X217065Y-25641D01*
X217164Y-25638D01*
X217222Y-25621D01*
X217283Y-25613D01*
X217375Y-25577D01*
X217470Y-25549D01*
X217522Y-25519D01*
X217578Y-25496D01*
X217658Y-25438D01*
X217744Y-25388D01*
X217819Y-25322D01*
X217836Y-25310D01*
X217843Y-25300D01*
X217865Y-25282D01*
X233152Y-9995D01*
X233170Y-9971D01*
X233192Y-9952D01*
X233267Y-9846D01*
X233346Y-9743D01*
X233358Y-9716D01*
X233375Y-9692D01*
X233421Y-9571D01*
X233473Y-9451D01*
X233477Y-9422D01*
X233488Y-9395D01*
X233502Y-9266D01*
X233523Y-9137D01*
X233520Y-9108D01*
X233523Y-9079D01*
X233505Y-8950D01*
X233493Y-8821D01*
X233483Y-8793D01*
X233479Y-8764D01*
X233453Y-8689D01*
X233453Y-6564D01*
X234261Y-4614D01*
X235754Y-3121D01*
X237704Y-2313D01*
X239816Y-2313D01*
X241766Y-3121D01*
X243259Y-4614D01*
X244067Y-6564D01*
X244067Y-8676D01*
X243259Y-10626D01*
X241766Y-12119D01*
X239816Y-12927D01*
X237690Y-12927D01*
X237587Y-12904D01*
X237462Y-12869D01*
X237432Y-12869D01*
X237404Y-12862D01*
X237274Y-12866D01*
X237144Y-12864D01*
X237115Y-12871D01*
X237086Y-12872D01*
X236961Y-12908D01*
X236835Y-12939D01*
X236809Y-12952D01*
X236780Y-12961D01*
X236668Y-13026D01*
X236554Y-13087D01*
X236532Y-13107D01*
X236506Y-13122D01*
X236385Y-13228D01*
X219387Y-30227D01*
X184473Y-30227D01*
G37*
%LPD*%
%LPC*%
G36*
X191984Y-5307D02*
X191984Y-5307D01*
X190034Y-4499D01*
X188541Y-3006D01*
X187733Y-1056D01*
X187733Y1070D01*
X187756Y1173D01*
X187791Y1298D01*
X187791Y1327D01*
X187798Y1356D01*
X187794Y1486D01*
X187796Y1616D01*
X187789Y1645D01*
X187788Y1674D01*
X187752Y1799D01*
X187722Y1925D01*
X187708Y1951D01*
X187699Y1980D01*
X187634Y2091D01*
X187573Y2206D01*
X187553Y2228D01*
X187538Y2254D01*
X187432Y2375D01*
X179765Y10042D01*
X179686Y10102D01*
X179614Y10170D01*
X179561Y10199D01*
X179513Y10236D01*
X179422Y10276D01*
X179336Y10324D01*
X179277Y10339D01*
X179221Y10363D01*
X179123Y10378D01*
X179028Y10403D01*
X178928Y10409D01*
X178907Y10413D01*
X178895Y10411D01*
X178867Y10413D01*
X109785Y10413D01*
X109755Y10410D01*
X109726Y10412D01*
X109598Y10390D01*
X109469Y10373D01*
X109442Y10363D01*
X109413Y10357D01*
X109294Y10304D01*
X109174Y10256D01*
X109150Y10239D01*
X109123Y10227D01*
X109021Y10146D01*
X108916Y10070D01*
X108897Y10047D01*
X108874Y10028D01*
X108796Y9925D01*
X108713Y9825D01*
X108701Y9798D01*
X108683Y9774D01*
X108648Y9704D01*
X107146Y8201D01*
X105196Y7393D01*
X103084Y7393D01*
X101134Y8201D01*
X99641Y9694D01*
X98833Y11644D01*
X98833Y13756D01*
X99641Y15706D01*
X101134Y17199D01*
X103084Y18007D01*
X105196Y18007D01*
X107146Y17199D01*
X108649Y15696D01*
X108706Y15607D01*
X108770Y15494D01*
X108790Y15473D01*
X108806Y15448D01*
X108901Y15359D01*
X108991Y15266D01*
X109016Y15250D01*
X109038Y15230D01*
X109151Y15167D01*
X109262Y15099D01*
X109290Y15091D01*
X109316Y15076D01*
X109442Y15044D01*
X109566Y15006D01*
X109596Y15004D01*
X109624Y14997D01*
X109785Y14987D01*
X181287Y14987D01*
X182998Y13275D01*
X190665Y5608D01*
X190689Y5590D01*
X190708Y5568D01*
X190814Y5493D01*
X190917Y5414D01*
X190944Y5402D01*
X190968Y5385D01*
X191089Y5339D01*
X191209Y5287D01*
X191238Y5283D01*
X191266Y5272D01*
X191394Y5258D01*
X191523Y5237D01*
X191552Y5240D01*
X191582Y5237D01*
X191710Y5255D01*
X191839Y5267D01*
X191867Y5277D01*
X191896Y5281D01*
X191971Y5307D01*
X194096Y5307D01*
X196046Y4499D01*
X197539Y3006D01*
X198347Y1056D01*
X198347Y-1056D01*
X197539Y-3006D01*
X196046Y-4499D01*
X194096Y-5307D01*
X191984Y-5307D01*
G37*
%LPD*%
%LPC*%
G36*
X60252Y36675D02*
X60252Y36675D01*
X57854Y37669D01*
X56019Y39504D01*
X55025Y41902D01*
X55025Y44498D01*
X56019Y46896D01*
X57854Y48731D01*
X60252Y49725D01*
X73848Y49725D01*
X76246Y48731D01*
X78081Y46896D01*
X79075Y44498D01*
X79075Y41902D01*
X78081Y39504D01*
X76246Y37669D01*
X73848Y36675D01*
X60252Y36675D01*
G37*
%LPD*%
%LPC*%
G36*
X20952Y-49725D02*
X20952Y-49725D01*
X18554Y-48731D01*
X16719Y-46896D01*
X15725Y-44498D01*
X15725Y-41902D01*
X16719Y-39504D01*
X18554Y-37669D01*
X20952Y-36675D01*
X29548Y-36675D01*
X31946Y-37669D01*
X33781Y-39504D01*
X34775Y-41902D01*
X34775Y-44498D01*
X33781Y-46896D01*
X31946Y-48731D01*
X29548Y-49725D01*
X20952Y-49725D01*
G37*
%LPD*%
%LPC*%
G36*
X20952Y36675D02*
X20952Y36675D01*
X18554Y37669D01*
X16719Y39504D01*
X15725Y41902D01*
X15725Y44498D01*
X16719Y46896D01*
X18554Y48731D01*
X20952Y49725D01*
X29548Y49725D01*
X31946Y48731D01*
X33781Y46896D01*
X34775Y44498D01*
X34775Y41902D01*
X33781Y39504D01*
X31946Y37669D01*
X29548Y36675D01*
X20952Y36675D01*
G37*
%LPD*%
%LPC*%
G36*
X396212Y-50975D02*
X396212Y-50975D01*
X393814Y-49981D01*
X391979Y-48146D01*
X390985Y-45748D01*
X390985Y-43152D01*
X391979Y-40754D01*
X393814Y-38919D01*
X396212Y-37925D01*
X398808Y-37925D01*
X401206Y-38919D01*
X403041Y-40754D01*
X404035Y-43152D01*
X404035Y-45748D01*
X403041Y-48146D01*
X401206Y-49981D01*
X398808Y-50975D01*
X396212Y-50975D01*
G37*
%LPD*%
D10*
X312420Y-25400D02*
X334920Y-25400D01*
X334920Y25400D02*
X312420Y25400D01*
D11*
X72550Y43200D02*
X61550Y43200D01*
X61550Y-43200D02*
X72550Y-43200D01*
X28250Y43200D02*
X22250Y43200D01*
X22250Y-43200D02*
X28250Y-43200D01*
D12*
X20320Y63500D03*
X45720Y63500D03*
X71120Y63500D03*
X96520Y63500D03*
X121920Y63500D03*
X147320Y63500D03*
X172720Y63500D03*
X198120Y63500D03*
X223520Y63500D03*
X248920Y63500D03*
X274320Y63500D03*
X20320Y-63500D03*
X45720Y-63500D03*
X71120Y-63500D03*
X96520Y-63500D03*
X121920Y-63500D03*
X147320Y-63500D03*
X172720Y-63500D03*
X198120Y-63500D03*
X223520Y-63500D03*
X248920Y-63500D03*
X274320Y-63500D03*
D13*
X44450Y29210D03*
X397510Y-44450D03*
D14*
X86360Y40640D03*
X86360Y33020D03*
X93980Y33020D03*
X93980Y40640D03*
X93980Y-40640D03*
X93980Y-33020D03*
X86360Y-40640D03*
X86360Y-33020D03*
X238760Y38100D03*
X335280Y43180D03*
X335280Y7620D03*
X322580Y7620D03*
X309880Y7620D03*
X322580Y43180D03*
X309880Y43180D03*
X347980Y43180D03*
X347980Y7620D03*
X335280Y55880D03*
X322580Y55880D03*
X309880Y55880D03*
X347980Y55880D03*
X386080Y7620D03*
X373380Y7620D03*
X360680Y7620D03*
X398780Y7620D03*
X386080Y30480D03*
X373380Y30480D03*
X360680Y30480D03*
X398780Y30480D03*
X386080Y20320D03*
X373380Y20320D03*
X360680Y20320D03*
X398780Y20320D03*
X386080Y43180D03*
X373380Y43180D03*
X360680Y43180D03*
X398780Y43180D03*
X386080Y55880D03*
X373380Y55880D03*
X360680Y55880D03*
X398780Y55880D03*
X238760Y-7620D03*
D15*
X218440Y-27940D01*
D14*
X104140Y-12700D03*
D15*
X170180Y-12700D02*
X185420Y-27940D01*
X170180Y-12700D02*
X104140Y-12700D01*
X185420Y-27940D02*
X218440Y-27940D01*
D14*
X193040Y0D03*
X104140Y12700D03*
D15*
X180340Y12700D02*
X193040Y0D01*
X180340Y12700D02*
X104140Y12700D01*
D14*
X86360Y15240D03*
X93980Y15240D03*
X86360Y22860D03*
X93980Y22860D03*
X86360Y-15240D03*
X86360Y-22860D03*
X93980Y-22860D03*
X93980Y-15240D03*
X238760Y5080D03*
X335280Y-7620D03*
X322580Y-7620D03*
X309880Y-7620D03*
X347980Y-7620D03*
X335280Y-43180D03*
X322580Y-43180D03*
X309880Y-43180D03*
X347980Y-43180D03*
X335280Y-55880D03*
X322580Y-55880D03*
X309880Y-55880D03*
X347980Y-55880D03*
X386080Y-7620D03*
X373380Y-7620D03*
X360680Y-7620D03*
X398780Y-7620D03*
X373380Y-43180D03*
X360680Y-43180D03*
X373380Y-55880D03*
X360680Y-55880D03*
X398780Y-20320D03*
X386080Y-20320D03*
X373380Y-20320D03*
X373380Y-30480D03*
X360680Y-20320D03*
X360680Y-30480D03*
X193040Y30480D03*
D15*
X222210Y24130D02*
X228560Y30480D01*
X199390Y24130D02*
X193040Y30480D01*
X199390Y24130D02*
X222210Y24130D01*
D14*
X228560Y30480D03*
X203200Y30480D03*
D15*
X218480Y30480D01*
D14*
X218480Y30480D03*
D16*
X251460Y-40640D02*
X274320Y-63500D01*
X251460Y-40640D02*
X248920Y-40640D01*
X238760Y-30480D01*
D14*
X238760Y-30480D03*
M02*
