G04 EAGLE Gerber RS-274X export*
G75*
%MOMM*%
%FSLAX34Y34*%
%LPD*%
%INGTS*%
%IPPOS*%
%AMOC8*
5,1,8,0,0,1.08239X$1,22.5*%
G01*
%ADD10C,0.249066*%
%ADD11R,1.500800X1.500800*%
%ADD12C,2.300800*%
%ADD13R,1.050800X0.330800*%
%ADD14R,1.050800X0.610800*%
%ADD15C,0.700800*%
%ADD16R,1.150800X1.050800*%
%ADD17C,0.414550*%
%ADD18C,1.930400*%
%ADD19C,1.050800*%

G36*
X73004Y37154D02*
X73004Y37154D01*
X73007Y37151D01*
X74129Y37306D01*
X74134Y37311D01*
X74138Y37308D01*
X75209Y37679D01*
X75213Y37685D01*
X75218Y37683D01*
X76195Y38256D01*
X76198Y38262D01*
X76203Y38261D01*
X77050Y39014D01*
X77052Y39021D01*
X77057Y39021D01*
X77741Y39924D01*
X77741Y39931D01*
X77746Y39932D01*
X78241Y40951D01*
X78239Y40958D01*
X78244Y40960D01*
X78531Y42057D01*
X78529Y42061D01*
X78531Y42062D01*
X78529Y42064D01*
X78532Y42066D01*
X78599Y43197D01*
X78597Y43201D01*
X78599Y43203D01*
X78532Y44334D01*
X78527Y44339D01*
X78531Y44343D01*
X78244Y45440D01*
X78238Y45444D01*
X78241Y45449D01*
X77746Y46468D01*
X77740Y46471D01*
X77741Y46476D01*
X77057Y47379D01*
X77050Y47381D01*
X77050Y47386D01*
X76203Y48139D01*
X76196Y48139D01*
X76195Y48144D01*
X75218Y48717D01*
X75211Y48716D01*
X75209Y48721D01*
X74138Y49092D01*
X74132Y49089D01*
X74129Y49094D01*
X73007Y49249D01*
X73002Y49246D01*
X73000Y49249D01*
X61000Y49249D01*
X60995Y49246D01*
X60992Y49249D01*
X59725Y49044D01*
X59719Y49038D01*
X59715Y49041D01*
X58525Y48559D01*
X58521Y48552D01*
X58515Y48554D01*
X57462Y47820D01*
X57460Y47812D01*
X57454Y47813D01*
X56591Y46863D01*
X56590Y46854D01*
X56585Y46854D01*
X55955Y45735D01*
X55956Y45727D01*
X55950Y45725D01*
X55585Y44495D01*
X55588Y44487D01*
X55583Y44484D01*
X55501Y43203D01*
X55504Y43199D01*
X55501Y43197D01*
X55583Y41916D01*
X55589Y41910D01*
X55585Y41905D01*
X55950Y40675D01*
X55957Y40670D01*
X55955Y40665D01*
X56585Y39546D01*
X56592Y39543D01*
X56591Y39537D01*
X57454Y38587D01*
X57462Y38586D01*
X57462Y38580D01*
X58515Y37846D01*
X58523Y37846D01*
X58525Y37841D01*
X59715Y37359D01*
X59722Y37361D01*
X59725Y37356D01*
X60992Y37151D01*
X60997Y37154D01*
X61000Y37151D01*
X73000Y37151D01*
X73004Y37154D01*
G37*
G36*
X73004Y-49246D02*
X73004Y-49246D01*
X73007Y-49249D01*
X74129Y-49094D01*
X74134Y-49089D01*
X74138Y-49092D01*
X75209Y-48721D01*
X75213Y-48715D01*
X75218Y-48717D01*
X76195Y-48144D01*
X76198Y-48138D01*
X76203Y-48139D01*
X77050Y-47386D01*
X77052Y-47379D01*
X77057Y-47379D01*
X77741Y-46476D01*
X77741Y-46469D01*
X77746Y-46468D01*
X78241Y-45449D01*
X78239Y-45442D01*
X78244Y-45440D01*
X78531Y-44343D01*
X78529Y-44339D01*
X78531Y-44338D01*
X78529Y-44336D01*
X78532Y-44334D01*
X78599Y-43203D01*
X78597Y-43199D01*
X78599Y-43197D01*
X78532Y-42066D01*
X78527Y-42061D01*
X78531Y-42057D01*
X78244Y-40960D01*
X78238Y-40956D01*
X78241Y-40951D01*
X77746Y-39932D01*
X77740Y-39929D01*
X77741Y-39924D01*
X77057Y-39021D01*
X77050Y-39019D01*
X77050Y-39014D01*
X76203Y-38261D01*
X76196Y-38261D01*
X76195Y-38256D01*
X75218Y-37683D01*
X75211Y-37684D01*
X75209Y-37679D01*
X74138Y-37308D01*
X74132Y-37311D01*
X74129Y-37306D01*
X73007Y-37151D01*
X73002Y-37154D01*
X73000Y-37151D01*
X61000Y-37151D01*
X60995Y-37154D01*
X60992Y-37151D01*
X59725Y-37356D01*
X59719Y-37362D01*
X59715Y-37359D01*
X58525Y-37841D01*
X58521Y-37848D01*
X58515Y-37846D01*
X57462Y-38580D01*
X57460Y-38588D01*
X57454Y-38587D01*
X56591Y-39537D01*
X56590Y-39546D01*
X56585Y-39546D01*
X55955Y-40665D01*
X55956Y-40673D01*
X55950Y-40675D01*
X55585Y-41905D01*
X55588Y-41913D01*
X55583Y-41916D01*
X55501Y-43197D01*
X55504Y-43201D01*
X55501Y-43203D01*
X55583Y-44484D01*
X55589Y-44490D01*
X55585Y-44495D01*
X55950Y-45725D01*
X55957Y-45730D01*
X55955Y-45735D01*
X56585Y-46854D01*
X56592Y-46857D01*
X56591Y-46863D01*
X57454Y-47813D01*
X57462Y-47814D01*
X57462Y-47820D01*
X58515Y-48554D01*
X58523Y-48554D01*
X58525Y-48559D01*
X59715Y-49041D01*
X59722Y-49039D01*
X59725Y-49044D01*
X60992Y-49249D01*
X60997Y-49246D01*
X61000Y-49249D01*
X73000Y-49249D01*
X73004Y-49246D01*
G37*
G36*
X28203Y37153D02*
X28203Y37153D01*
X28205Y37151D01*
X29381Y37262D01*
X29386Y37267D01*
X29390Y37264D01*
X30522Y37602D01*
X30526Y37608D01*
X30531Y37606D01*
X31575Y38158D01*
X31578Y38165D01*
X31583Y38163D01*
X32499Y38909D01*
X32500Y38916D01*
X32506Y38916D01*
X33259Y39826D01*
X33259Y39833D01*
X33264Y39834D01*
X33825Y40873D01*
X33824Y40878D01*
X33828Y40880D01*
X33827Y40881D01*
X33829Y40882D01*
X34176Y42011D01*
X34176Y42012D01*
X34177Y42013D01*
X34174Y42017D01*
X34178Y42020D01*
X34299Y43195D01*
X34295Y43202D01*
X34299Y43206D01*
X34142Y44546D01*
X34137Y44552D01*
X34140Y44557D01*
X33689Y45828D01*
X33682Y45833D01*
X33684Y45838D01*
X32962Y46977D01*
X32954Y46980D01*
X32955Y46986D01*
X31997Y47936D01*
X31989Y47937D01*
X31988Y47943D01*
X30843Y48656D01*
X30835Y48655D01*
X30833Y48661D01*
X29557Y49101D01*
X29550Y49099D01*
X29547Y49103D01*
X28205Y49249D01*
X28202Y49247D01*
X28200Y49249D01*
X22200Y49249D01*
X22197Y49247D01*
X22194Y49249D01*
X20865Y49094D01*
X20859Y49088D01*
X20855Y49091D01*
X19594Y48644D01*
X19589Y48637D01*
X19584Y48639D01*
X18454Y47922D01*
X18451Y47915D01*
X18445Y47916D01*
X17503Y46966D01*
X17502Y46957D01*
X17496Y46957D01*
X16789Y45821D01*
X16790Y45813D01*
X16784Y45811D01*
X16348Y44546D01*
X16350Y44538D01*
X16345Y44536D01*
X16201Y43205D01*
X16205Y43199D01*
X16201Y43195D01*
X16311Y42029D01*
X16316Y42024D01*
X16313Y42020D01*
X16648Y40897D01*
X16654Y40893D01*
X16652Y40889D01*
X17200Y39853D01*
X17206Y39850D01*
X17205Y39845D01*
X17944Y38937D01*
X17951Y38935D01*
X17951Y38930D01*
X18853Y38183D01*
X18861Y38183D01*
X18861Y38178D01*
X19892Y37621D01*
X19899Y37622D01*
X19901Y37617D01*
X21020Y37273D01*
X21027Y37275D01*
X21030Y37271D01*
X22195Y37151D01*
X22198Y37153D01*
X22200Y37151D01*
X28200Y37151D01*
X28203Y37153D01*
G37*
G36*
X28203Y-49247D02*
X28203Y-49247D01*
X28205Y-49249D01*
X29381Y-49138D01*
X29386Y-49133D01*
X29390Y-49136D01*
X30522Y-48798D01*
X30526Y-48792D01*
X30531Y-48794D01*
X31575Y-48242D01*
X31578Y-48235D01*
X31583Y-48237D01*
X32499Y-47491D01*
X32500Y-47484D01*
X32506Y-47484D01*
X33259Y-46575D01*
X33259Y-46567D01*
X33264Y-46567D01*
X33825Y-45527D01*
X33824Y-45522D01*
X33828Y-45520D01*
X33827Y-45519D01*
X33829Y-45518D01*
X34176Y-44389D01*
X34176Y-44388D01*
X34177Y-44387D01*
X34174Y-44383D01*
X34178Y-44380D01*
X34299Y-43205D01*
X34295Y-43198D01*
X34299Y-43194D01*
X34142Y-41854D01*
X34137Y-41848D01*
X34140Y-41843D01*
X33689Y-40572D01*
X33682Y-40567D01*
X33684Y-40562D01*
X32962Y-39423D01*
X32954Y-39420D01*
X32955Y-39414D01*
X31997Y-38464D01*
X31989Y-38463D01*
X31988Y-38457D01*
X30843Y-37744D01*
X30835Y-37745D01*
X30833Y-37739D01*
X29557Y-37299D01*
X29550Y-37301D01*
X29547Y-37297D01*
X28205Y-37151D01*
X28202Y-37153D01*
X28200Y-37151D01*
X22200Y-37151D01*
X22197Y-37153D01*
X22194Y-37151D01*
X20865Y-37306D01*
X20859Y-37312D01*
X20855Y-37309D01*
X19594Y-37756D01*
X19589Y-37763D01*
X19584Y-37761D01*
X18454Y-38478D01*
X18451Y-38485D01*
X18445Y-38484D01*
X17503Y-39435D01*
X17502Y-39443D01*
X17496Y-39443D01*
X16789Y-40579D01*
X16790Y-40587D01*
X16784Y-40589D01*
X16348Y-41854D01*
X16350Y-41862D01*
X16345Y-41865D01*
X16201Y-43195D01*
X16205Y-43201D01*
X16201Y-43205D01*
X16311Y-44371D01*
X16316Y-44376D01*
X16313Y-44380D01*
X16648Y-45503D01*
X16654Y-45507D01*
X16652Y-45511D01*
X17200Y-46547D01*
X17206Y-46550D01*
X17205Y-46555D01*
X17944Y-47463D01*
X17951Y-47465D01*
X17951Y-47470D01*
X18853Y-48217D01*
X18861Y-48217D01*
X18861Y-48223D01*
X19892Y-48779D01*
X19899Y-48778D01*
X19901Y-48783D01*
X21020Y-49127D01*
X21027Y-49125D01*
X21030Y-49129D01*
X22195Y-49249D01*
X22198Y-49247D01*
X22200Y-49249D01*
X28200Y-49249D01*
X28203Y-49247D01*
G37*
D10*
X226141Y-4491D02*
X229959Y-4491D01*
X229959Y-5509D01*
X226141Y-5509D01*
X226141Y-4491D01*
X226141Y509D02*
X229959Y509D01*
X229959Y-509D01*
X226141Y-509D01*
X226141Y509D01*
X226141Y5509D02*
X229959Y5509D01*
X229959Y4491D01*
X226141Y4491D01*
X226141Y5509D01*
X222891Y10241D02*
X222891Y14059D01*
X223909Y14059D01*
X223909Y10241D01*
X222891Y10241D01*
X222891Y12607D02*
X223909Y12607D01*
X217891Y14059D02*
X217891Y10241D01*
X217891Y14059D02*
X218909Y14059D01*
X218909Y10241D01*
X217891Y10241D01*
X217891Y12607D02*
X218909Y12607D01*
X212891Y14059D02*
X212891Y10241D01*
X212891Y14059D02*
X213909Y14059D01*
X213909Y10241D01*
X212891Y10241D01*
X212891Y12607D02*
X213909Y12607D01*
X207891Y14059D02*
X207891Y10241D01*
X207891Y14059D02*
X208909Y14059D01*
X208909Y10241D01*
X207891Y10241D01*
X207891Y12607D02*
X208909Y12607D01*
X205659Y4491D02*
X201841Y4491D01*
X201841Y5509D01*
X205659Y5509D01*
X205659Y4491D01*
X205659Y-509D02*
X201841Y-509D01*
X201841Y509D01*
X205659Y509D01*
X205659Y-509D01*
X205659Y-5509D02*
X201841Y-5509D01*
X201841Y-4491D01*
X205659Y-4491D01*
X205659Y-5509D01*
X208909Y-10241D02*
X208909Y-14059D01*
X207891Y-14059D01*
X207891Y-10241D01*
X208909Y-10241D01*
X208909Y-11693D02*
X207891Y-11693D01*
X213909Y-10241D02*
X213909Y-14059D01*
X212891Y-14059D01*
X212891Y-10241D01*
X213909Y-10241D01*
X213909Y-11693D02*
X212891Y-11693D01*
X218909Y-10241D02*
X218909Y-14059D01*
X217891Y-14059D01*
X217891Y-10241D01*
X218909Y-10241D01*
X218909Y-11693D02*
X217891Y-11693D01*
X223909Y-10241D02*
X223909Y-14059D01*
X222891Y-14059D01*
X222891Y-10241D01*
X223909Y-10241D01*
X223909Y-11693D02*
X222891Y-11693D01*
D11*
X215900Y0D03*
D12*
X312420Y-25400D02*
X334920Y-25400D01*
X334920Y25400D02*
X312420Y25400D01*
D13*
X72800Y-7500D03*
X72800Y-2500D03*
D14*
X72800Y-32250D03*
X72800Y-24500D03*
D13*
X72800Y-17500D03*
X72800Y-12500D03*
X72800Y7500D03*
X72800Y2500D03*
D14*
X72800Y32250D03*
X72800Y24500D03*
D13*
X72800Y17500D03*
X72800Y12500D03*
D15*
X61750Y28900D03*
X61750Y-28900D03*
D16*
X130420Y-30480D03*
X113420Y-30480D03*
X161680Y0D03*
X178680Y0D03*
X161680Y15240D03*
X178680Y15240D03*
X161680Y30480D03*
X178680Y30480D03*
X253120Y15240D03*
X270120Y15240D03*
X253120Y30480D03*
X270120Y30480D03*
X253120Y-15240D03*
X270120Y-15240D03*
X253120Y-30480D03*
X270120Y-30480D03*
X253120Y0D03*
X270120Y0D03*
X178680Y-15240D03*
X161680Y-15240D03*
X130420Y30480D03*
X113420Y30480D03*
D17*
X130489Y17182D02*
X132351Y17182D01*
X132351Y8820D01*
X130489Y8820D01*
X130489Y17182D01*
X130489Y12759D02*
X132351Y12759D01*
X132351Y16698D02*
X130489Y16698D01*
X122851Y17182D02*
X120989Y17182D01*
X122851Y17182D02*
X122851Y8820D01*
X120989Y8820D01*
X120989Y17182D01*
X120989Y12759D02*
X122851Y12759D01*
X122851Y16698D02*
X120989Y16698D01*
X113351Y17182D02*
X111489Y17182D01*
X113351Y17182D02*
X113351Y8820D01*
X111489Y8820D01*
X111489Y17182D01*
X111489Y12759D02*
X113351Y12759D01*
X113351Y16698D02*
X111489Y16698D01*
X111489Y-8820D02*
X113351Y-8820D01*
X113351Y-17182D01*
X111489Y-17182D01*
X111489Y-8820D01*
X111489Y-13243D02*
X113351Y-13243D01*
X113351Y-9304D02*
X111489Y-9304D01*
X130489Y-8820D02*
X132351Y-8820D01*
X132351Y-17182D01*
X130489Y-17182D01*
X130489Y-8820D01*
X130489Y-13243D02*
X132351Y-13243D01*
X132351Y-9304D02*
X130489Y-9304D01*
X122851Y-17182D02*
X120989Y-17182D01*
X120989Y-8820D01*
X122851Y-8820D01*
X122851Y-17182D01*
X122851Y-13243D02*
X120989Y-13243D01*
X120989Y-9304D02*
X122851Y-9304D01*
D18*
X20320Y63500D03*
X45720Y63500D03*
X71120Y63500D03*
X96520Y63500D03*
X121920Y63500D03*
X147320Y63500D03*
X172720Y63500D03*
X198120Y63500D03*
X223520Y63500D03*
X248920Y63500D03*
X274320Y63500D03*
X20320Y-63500D03*
X45720Y-63500D03*
X71120Y-63500D03*
X96520Y-63500D03*
X121920Y-63500D03*
X147320Y-63500D03*
X172720Y-63500D03*
X198120Y-63500D03*
X223520Y-63500D03*
X248920Y-63500D03*
X274320Y-63500D03*
D19*
X44450Y29210D03*
X397510Y-44450D03*
M02*
